<!DOCTYPE svg PUBLIC "-//W3C//DTD SVG 1.1//EN" "http://www.w3.org/Graphics/SVG/1.1/DTD/svg11.dtd">
<!-- Uploaded to: SVG Repo, www.svgrepo.com, Transformed by: SVG Repo Mixer Tools -->
<svg fill="#ffffff" version="1.1" id="Capa_1" xmlns="http://www.w3.org/2000/svg" xmlns:xlink="http://www.w3.org/1999/xlink" width="800px" height="800px" viewBox="0 0 30.551 30.551" xml:space="preserve" stroke="#ffffff">
<g id="SVGRepo_bgCarrier" stroke-width="0"/>
<g id="SVGRepo_tracerCarrier" stroke-linecap="round" stroke-linejoin="round"/>
<g id="SVGRepo_iconCarrier"> <g> <path d="M3.568,0.738v27.168l18.17,0.039V5.425l-4.7-4.687H3.568z M20.587,26.789L20.587,26.789L4.723,26.755V1.893h11.104v5.213 h4.76V26.789z M20.586,5.952H16.98V2.31l3.605,3.594V5.952z M6.83,9.125h11.958v1.01H6.83V9.125z M6.83,11.072h11.958v1.008H6.83 V11.072z M14.359,6.265H6.807V5.256h7.552V6.265z M14.359,8.213H6.807V7.204h7.552V8.213z M6.784,13.163h12.004v1.009H6.784V13.163 z M6.784,15.11h12.004v1.008H6.784V15.11z M6.784,16.948h7.624v1.01H6.784V16.948z M17.846,28.966h1.151v1.585L0.828,30.514V3.345 h1.864v1.154H1.981v24.862l15.865,0.035V28.966z M29.282,17.536L29.244,1.123l-0.667,0.002L28.573,0l-1.94,0.004l0.004,1.126 l-0.648,0.002V1.131l-1.456,0.003L23.85,1.137l0.605,9.304l0.584-0.002l-0.206-8.036l1.028-0.002l0.035,15.133 c-0.275,0.042-0.489,0.251-0.488,0.515c0,0.264,0.214,0.473,0.492,0.516v0.019l2.134-0.005l1.103-0.002c0,0,0-0.001,0.002,0 l0.146-0.001v-0.027c0.25-0.062,0.438-0.26,0.438-0.506S29.533,17.598,29.282,17.536z M26.475,17.516l-0.039-15.81L28.67,1.7 l0.037,15.81L26.475,17.516z M27.928,2.935l0.014,5.544l-1.073,0.002l-0.013-5.544L27.928,2.935z M26.609,24.965l0.171,0.01 l0.243,0.987h0.277l0.176,1.374h0.354l0.109-1.375l0.309-0.001l0.17-0.897l0.252,0.015l0.615-6.03l-3.385,0.01L26.609,24.965z M28.154,24.471l-1.032-0.056l-0.571-4.788l2.1-0.006L28.154,24.471z"/> </g> </g>
</svg>